<svg width="354" height="107" viewBox="0 0 354 107" fill="none" xmlns="http://www.w3.org/2000/svg">
<mask id="mask0_534_183" style="mask-type:alpha" maskUnits="userSpaceOnUse" x="5" y="2" width="345" height="108">
<path d="M5.76 107C6.336 94.616 10.512 85.832 16.704 78.776C24.48 70.136 35.136 64.232 44.928 58.328C57.744 50.984 65.232 45.8 65.232 33.992C65.232 21.896 57.024 13.688 43.92 13.688C37.008 13.688 31.968 15.848 28.224 20.024C24.192 24.2 22.464 29.816 22.464 38.456H8.208C8.208 26.936 11.52 18.728 17.712 12.392C24.048 5.62399 33.84 2.16799 45.072 2.16799C66.096 2.16799 79.632 15.56 79.632 33.704C79.632 52.712 67.104 59.336 51.696 68.12C41.04 74.6 27.072 82.376 23.04 93.032L22.752 94.184H77.76V107H5.76ZM134.015 109.304C108.671 109.304 93.6945 88.28 93.6945 55.592C93.6945 22.472 109.679 2.024 134.159 2.024C158.782 2.024 174.479 22.184 174.479 55.592C174.479 88.28 159.791 109.304 134.015 109.304ZM134.159 97.496C152.015 97.496 160.078 81.512 160.078 55.592C160.078 30.104 151.583 13.688 134.159 13.688C116.591 13.688 107.951 29.816 107.951 55.592C107.951 81.08 116.591 97.496 134.159 97.496ZM187.166 107C187.742 94.616 191.918 85.832 198.11 78.776C205.886 70.136 216.542 64.232 226.334 58.328C239.15 50.984 246.638 45.8 246.638 33.992C246.638 21.896 238.43 13.688 225.326 13.688C218.414 13.688 213.374 15.848 209.63 20.024C205.598 24.2 203.87 29.816 203.87 38.456H189.614C189.614 26.936 192.926 18.728 199.118 12.392C205.454 5.62399 215.246 2.16799 226.478 2.16799C247.502 2.16799 261.038 15.56 261.038 33.704C261.038 52.712 248.51 59.336 233.102 68.12C222.446 74.6 208.478 82.376 204.446 93.032L204.158 94.184H259.166V107H187.166ZM319.541 107V82.088H269.861V69.704L321.701 3.32H333.077V71.288H349.781V82.088H333.077V107H319.541ZM281.093 71.864C281.093 71.864 290.453 71.288 296.357 71.288H319.541V36.44C319.541 30.968 320.261 21.32 320.261 21.32H319.973C319.973 21.32 315.221 29.384 311.045 34.712L292.037 58.904C288.005 63.944 281.093 71.576 281.093 71.576V71.864Z" fill="#786ED6"/>
</mask>
<g mask="url(#mask0_534_183)">
<rect x="-10" y="-11" width="374" height="103" fill="#786ED6"/>
</g>
</svg>
