<svg width="1728" height="434" viewBox="0 0 1728 434" fill="none" xmlns="http://www.w3.org/2000/svg">
<path fill-rule="evenodd" clip-rule="evenodd" d="M808.646 434C829.92 390.41 841.087 335.191 841.087 271.105C841.087 102.209 761.735 0.289062 637.247 0.289062C513.487 0.289062 432.679 103.665 432.679 271.105C432.679 335.191 444.065 390.41 465.479 434H543.272C517.515 397.014 504.751 340.76 504.751 271.105C504.751 140.793 548.431 59.2571 637.247 59.2571C725.335 59.2571 768.287 142.249 768.287 271.105C768.287 341.461 756.535 397.337 731.679 434H808.646ZM1007.11 434H929.36C937.94 417.112 948.492 402.063 960.558 388.313C995.79 349.167 1042.71 321.131 1087.71 294.248L1087.72 294.244L1087.72 294.241L1087.73 294.237C1092.93 291.127 1098.11 288.032 1103.25 284.937C1168.04 247.809 1205.89 221.601 1205.89 161.905C1205.89 100.753 1164.4 59.2571 1098.15 59.2571C1063.21 59.2571 1037.73 70.1771 1018.8 91.2891C998.414 112.401 989.678 140.793 989.678 184.473H917.607C917.607 126.233 934.35 84.7371 965.654 52.7051C997.686 18.489 1047.19 1.01705 1103.97 1.01705C1210.26 1.01705 1278.69 68.721 1278.69 160.449C1278.69 254.048 1218.61 288.25 1143.5 331L1143.47 331.021C1141.48 332.155 1139.47 333.294 1137.46 334.441C1133.52 336.84 1129.48 339.274 1125.39 341.746L1125.37 341.755C1083.07 367.273 1034.01 396.869 1007.11 434ZM1642.89 434H1574.46V405.057H1323.3V342.449L1585.38 6.84107H1642.89V350.457H1727.34V405.057H1642.89V434ZM89.9995 434H12.2511C20.8303 417.112 31.3825 402.063 43.4491 388.313C78.6803 349.167 125.605 321.131 170.601 294.248L170.601 294.247L170.602 294.247L170.603 294.246L170.604 294.246C175.814 291.133 180.999 288.035 186.137 284.937C250.929 247.809 288.785 221.601 288.785 161.905C288.785 100.753 247.289 59.2571 181.041 59.2571C146.097 59.2571 120.617 70.1771 101.689 91.2891C81.3051 112.401 72.5691 140.793 72.5691 184.473H0.497101C0.497101 126.233 17.2411 84.7371 48.5451 52.7051C80.5771 18.489 130.081 1.01705 186.865 1.01705C293.153 1.01705 361.585 68.721 361.585 160.449C361.585 254.048 301.498 288.25 226.395 331C224.392 332.14 222.377 333.287 220.353 334.441C216.404 336.843 212.364 339.28 208.261 341.755C165.962 367.273 116.904 396.869 89.9995 434ZM1457.25 350.457C1427.4 350.457 1380.08 353.369 1380.08 353.369V351.913C1380.08 351.913 1415.02 313.329 1435.41 287.849L1531.5 165.545C1552.62 138.609 1576.64 97.8411 1576.64 97.8411H1578.1C1578.1 97.8411 1574.46 146.617 1574.46 174.281V350.457H1457.25Z" fill="#786ED6"/>
</svg>
