<svg width="1820" height="588" viewBox="0 0 1820 588" fill="none" xmlns="http://www.w3.org/2000/svg">
<path d="M743.381 342.239L1204 277.289V1H617V588H856.427L743.381 342.239Z" fill="#FF8761"/>
<path d="M1382.54 360.989L1820 424.723V154.323L1645.84 163.593L1820 104.171V1H1233V588H1820V555.231L1382.54 360.989Z" fill="#FF8761"/>
<path fill-rule="evenodd" clip-rule="evenodd" d="M0 513.383V0.8125H587V587.812H434.746L205.709 360.801L0 513.383ZM332.594 273.668C388.127 273.668 433.146 228.642 433.146 173.099C433.146 117.557 388.127 72.5311 332.594 72.5311C277.061 72.5311 232.042 117.557 232.042 173.099C232.042 228.642 277.061 273.668 332.594 273.668Z" fill="#FF8761"/>
</svg>
