<?xml version="1.0" encoding="UTF-8"?>
<svg id="Livello_2" data-name="Livello 2" xmlns="http://www.w3.org/2000/svg" viewBox="0 0 232.64 213.73">
  <defs>
    <style>
      .cls-1 {
        fill: #fff;
        stroke-width: 0px;
      }
    </style>
  </defs>
  <g id="Livello_1-2" data-name="Livello 1">
    <g>
      <path class="cls-1" d="M.06,0h209.16l-.06,181.24h-45.91V46.78H45.92v134.46H0L.06,0ZM113.28,189.27h4.07c2.63,0,4.21.14,5.13.42,1.19.49,1.68,1.15,2.06,1.66.66.89,1.18,2.76,1.19,5.05v9.82c0,2.16-.31,2.99-.54,3.71-.32.99-.86,1.67-1.65,2.28-1.04.8-2.77,1.23-4.51,1.17h-5.75v-24.11ZM118.22,192.78v16.79c1.07.04,1.82-.11,2.12-.61.33-.5.46-1.23.46-2.96v-9.83c0-1.17-.11-1.74-.2-2.07-.08-.33-.26-.8-.63-1.03-.48-.3-.92-.3-1.75-.3M97.89,188.71c1.17,0,2.32.11,3.2.53.91.44,1.56,1.17,2.1,1.99.53.82.8,1.84.91,2.84.1.99.15,2.69.15,5.09v4.08c0,2.46-.05,4.18-.16,5.16-.11.98-.44,1.89-.99,2.73-.55.84-1.28,1.46-2.19,1.89-.89.4-1.89.61-3,.62-1.12,0-2.12-.22-3.01-.62-.91-.42-1.64-1.05-2.19-1.89-.55-.83-.88-1.74-.99-2.73-.1-.98-.16-2.7-.16-5.16v-4.08c0-2.4.05-4.09.14-5.09.11-1,.38-2.02.91-2.84.54-.83,1.19-1.55,2.1-1.99.87-.42,2.03-.53,3.2-.53h0ZM97.92,209.65c.49,0,.97-.34,1.1-.67.13-.32.26-1.04.26-2.42v-11.15c0-1.23-.1-1.92-.3-2.21-.19-.29-.5-.54-1.08-.53-.6,0-.89.25-1.09.53-.2.29-.3.98-.3,2.21v11.15c0,1.39.13,2.1.26,2.42.13.33.61.67,1.1.67h.05ZM184.06,188.71c1.17,0,2.33.11,3.2.53.9.44,1.56,1.17,2.09,1.99.53.82.81,1.84.91,2.84.1.99.15,2.69.15,5.09v4.08c0,2.46-.05,4.18-.16,5.16-.1.98-.44,1.89-.99,2.73-.55.84-1.28,1.46-2.19,1.89-.89.4-1.89.61-3.01.62-1.12,0-2.12-.22-3.01-.62-.9-.42-1.63-1.05-2.19-1.89-.55-.83-.88-1.74-.99-2.73-.1-.98-.16-2.7-.16-5.16v-4.08c0-2.4.05-4.09.14-5.09.11-1,.38-2.02.91-2.84.54-.83,1.19-1.55,2.09-1.99.87-.42,2.03-.53,3.2-.53h0ZM184.08,209.65c.49,0,.97-.34,1.1-.67.13-.32.26-1.04.26-2.42v-11.15c0-1.23-.1-1.92-.3-2.21-.19-.29-.5-.54-1.08-.53-.6,0-.89.25-1.09.53-.2.29-.3.98-.3,2.21v11.15c0,1.39.13,2.1.26,2.42.13.33.6.67,1.1.67h.05ZM84.84,189.25v20.16h5.41v3.93s-10.23,0-10.23,0v-24.09h4.82ZM197.37,189.25v20.16h5.41v3.93s-10.23,0-10.23,0v-24.09h4.82ZM161.47,213.34h-4.83v-24.09h4.83v24.09ZM209.24,213.34h-4.83v-24.09h4.83v24.09ZM12.49,197.9h-5.13v-2.3c0-1.21-.11-1.88-.22-2.18-.11-.3-.46-.79-1.21-.78-.61,0-.92.53-1.04,1.04-.11.37-.1.9-.1,2.11v11.09c0,1.16.09,1.8.2,2.15.11.35.56.71,1.08.74.5.03.99-.29,1.14-.7.12-.35.16-1.11.16-2.41v-2.79h5.19s-.02.85-.02.85c0,2.47-.07,4.3-.37,5.34-.29,1.03-.82,1.89-1.95,2.71-1.02.74-2.65.95-4.1.95s-2.79-.12-3.79-.78c-.99-.66-1.65-1.57-1.97-2.73-.32-1.17-.36-3.14-.36-5.48v-6.97c0-1.72.05-3.22.15-4.07.1-.87.38-1.7.86-2.5.49-.79,1.16-1.42,2.01-1.87.86-.46,1.85-.48,2.96-.48,1.51,0,3.14.14,4.12.85.98.71,1.63,1.59,1.94,2.65.31,1.05.46,2.69.46,4.93v.62ZM53.95,189.25v3.69h-3.58v20.41h-4.83v-20.41h-3.54v-3.69h11.95ZM55.52,189.25h10.13v3.72h-5.21v5.04h5.21s0,3.73,0,3.73h-5.21v7.66h5.29v3.95h-10.21v-24.1ZM72.71,189.25v20.16h5.41v3.93s-10.23,0-10.23,0v-24.09h4.83ZM133.2,213.34h-4.83v-24.09h4.83v24.09ZM19.99,192.84s.05.66.07.77l.05.43.93,9.7h-2.16l1.02-9.69.05-.46c.01-.08.02-.74.06-.75M21.39,207.34l.61,6.01h4.86l-2.88-24.1h-6.97l-3.38,24.1h4.21l.64-6.01h2.9ZM40.62,197.76h-4.89v-2.75c0-.82-.1-1.33-.23-1.56-.13-.23-.43-.8-1.21-.83-.49,0-.91.2-1.09.55-.16.3-.24.66-.25,1.28-.02,1.08.49,1.68.75,2.05.25.36.8.91,1.57,1.62,2.57,2.39,3.11,3,3.83,3.99.71.97,1.6,2.62,1.6,4.96,0,1.7-.25,2.67-.61,3.47-.35.81-1.01,1.75-1.95,2.33-1.01.54-2.14.85-3.48.86-1.47,0-3.09-.18-4.14-.8-1.04-.63-1.73-1.56-2.06-2.53-.32-.97-.39-2.44-.39-4.23v-2.24h4.91v3.59c0,.9.26,1.52.4,1.77.22.43.71.55,1.07.55s.77-.22.94-.55c.18-.32.29-.87.29-1.51,0-1.41-.54-2.27-.88-2.7-.35-.43-1.02-1.24-2.35-2.31-1.31-1.05-1.77-1.61-2.22-2.07-.44-.46-1.11-1.2-1.57-2.26-.34-.79-.68-1.76-.68-3.03,0-1.83.23-2.83.63-3.68.6-1.15,1.31-1.86,2.23-2.33.92-.48,2.01-.6,3.32-.6,1.43,0,2.76.15,3.76.68.6.31,1.16.8,1.55,1.28.27.33.53.77.7,1.17.53,1.28.41,4.21.43,4.93v.94ZM146.25,192.57v6.06h1.16c.55.02,1.43-.66,1.45-1.68.03-1.09,0-2.71,0-2.71,0,0-.05-1.67-1.7-1.68h-.92ZM141.43,213.34v-24.1h6.59c.75,0,2.26.13,3.18.48.91.35,2.76,1.28,2.69,5.45-.07,4.33-3.34,4.86-3.34,4.86-.06.19.05.2.25.21.63.03,2.18.7,2.66,1.96.5,1.1.42,2.61.42,2.61,0,0,0,5.07.04,5.62.05.77.27,2.24,1.1,2.92l-5.11-.02s-.86-.57-.86-2.94.03-5.37,0-6.04c-.03-.59-.52-2.27-2.79-2.06v11.04h-4.82ZM176.77,189.25l-3.46,24.1h-6.64l-3.4-24.1h5.27l1.32,18.24s.06,1.82.08,1.85c.03-.02.15-1.85.15-1.85l2.06-18.24h4.63Z"/>
      <g>
        <path class="cls-1" d="M232.37,210.83v2.5h-13.41v-4.59l9.53-1.32v-.04l-9.53-1.32v-4.5h13.41v2.83h-11.45v.04l11.45,1.81v2.75l-11.45,1.81v.04h11.45Z"/>
        <path class="cls-1" d="M228.55,192.84c2.84.08,4.09,1.05,4.09,3.97,0,3.86-2.69,3.94-4.39,3.94h-9.28v-3.13h9.66c1.07,0,1.86,0,1.86-.81s-.79-.85-1.86-.85h-9.66v-3.12h9.58Z"/>
        <path class="cls-1" d="M223.77,187.23h-1.88c-.66,0-1.04.21-1.04.83,0,.68.38.83,1.04.83,2.26,0,2.92-4.78,7.06-4.78,2.52,0,3.69,1.36,3.69,3.97,0,2-.68,3.94-2.99,3.94h-2.49v-3.13h2.32c.79,0,1.02-.25,1.02-.83,0-.51-.23-.83-1.02-.83-3.03,0-3.09,4.78-7.42,4.78-2.43,0-3.35-1.6-3.35-4.01,0-2.11.71-3.9,2.96-3.9h2.11v3.12Z"/>
        <path class="cls-1" d="M232.37,183.31h-13.41v-6.48h2.03v3.35h2.94v-3.24h2.03v3.24h4.37v-3.35h2.03v6.48Z"/>
        <path class="cls-1" d="M228.72,168.4c3.07,0,3.92,1.88,3.92,3.95s-.85,3.95-3.92,3.95h-6.1c-3.07,0-3.92-1.88-3.92-3.95s.85-3.95,3.92-3.95h6.1ZM229.44,173.18c.55,0,1.05-.17,1.05-.83s-.51-.83-1.05-.83h-7.53c-.55,0-1.05.17-1.05.83s.51.83,1.05.83h7.53Z"/>
        <path class="cls-1" d="M218.97,163.2v-3.22c0-3.5.56-4.69,4.58-4.69h4.78c2.54,0,4.05.75,4.05,4.69v3.22h-13.41ZM230.45,160.07c0-1.53-.58-1.66-1.86-1.66h-5.52c-1.79,0-2.18.08-2.18,1.66h9.57Z"/>
        <path class="cls-1" d="M218.97,151.26l4.73,1.49v1.9l-4.73-.62v-2.77Z"/>
        <path class="cls-1" d="M218.97,144.25l13.41-1.73v3.11l-3.29.36v1.69l3.29.51v2.64l-13.41-2.28v-4.29ZM227.05,146.21l-5.97.55v.04l5.97.55v-1.13Z"/>
        <path class="cls-1" d="M232.37,141.91h-13.41v-3.14c0-2.97.3-4.74,3.12-4.74,1.68,0,2.77.7,3.05,2.39h.04c.04-1.51.6-2.39,2.52-2.39h2.81c.53,0,1.32-.09,1.86-.47v3.14c-.55.38-1.34.45-1.86.45h-2.84c-.94,0-1.41.57-1.41,1.13v.51h6.12v3.12ZM224.33,138.79c0-1.41-.47-1.64-1.73-1.64s-1.71.21-1.71,1.64h3.45Z"/>
        <path class="cls-1" d="M221,133.61h-2.03v-7.49h2.03v2.18h11.37v3.12h-11.37v2.18Z"/>
        <path class="cls-1" d="M232.37,125.47h-13.41v-6.48h2.03v3.35h2.94v-3.24h2.03v3.24h4.37v-3.35h2.03v6.48Z"/>
        <path class="cls-1" d="M227.16,106.19h1.77c2.5,0,3.71,1.34,3.71,3.97,0,2.07-.85,3.94-3.92,3.94h-6.1c-3.07,0-3.92-1.86-3.92-3.94,0-2.28.68-3.97,3.58-3.97h1.47v3.12h-1.84c-.55,0-1.05.17-1.05.85,0,.64.51.81,1.05.81h7.53c.55,0,1.05-.17,1.05-.81,0-.68-.51-.85-1.05-.85l-2.28-.02v-3.11Z"/>
        <path class="cls-1" d="M228.72,97.45c3.07,0,3.92,1.88,3.92,3.95s-.85,3.95-3.92,3.95h-6.1c-3.07,0-3.92-1.88-3.92-3.95s.85-3.95,3.92-3.95h6.1ZM229.44,102.23c.55,0,1.05-.17,1.05-.83s-.51-.83-1.05-.83h-7.53c-.55,0-1.05.17-1.05.83s.51.83,1.05.83h7.53Z"/>
        <path class="cls-1" d="M218.97,96.73v-4.33l9.75-2v-.04h-9.75v-2.45h13.41v4.01l-11.2,2.32v.04h11.2v2.45h-13.41Z"/>
        <path class="cls-1" d="M221,87.35h-2.03v-7.49h2.03v2.18h11.37v3.12h-11.37v2.18Z"/>
        <path class="cls-1" d="M232.37,79.22h-13.41v-6.48h2.03v3.35h2.94v-3.24h2.03v3.24h4.37v-3.35h2.03v6.48Z"/>
        <path class="cls-1" d="M232.37,69.72v2.5h-13.41v-4.59l9.53-1.32v-.04l-9.53-1.32v-4.5h13.41v2.82h-11.45v.04l11.45,1.81v2.75l-11.45,1.81v.04h11.45Z"/>
        <path class="cls-1" d="M232.37,59.65h-13.41v-3.82c0-2.49.56-4.09,2.88-4.09h2.45c2.01,0,2.9,1.79,2.9,3.63v1.15h5.18v3.13ZM225.28,56.52v-.49c0-1.09-.6-1.17-2.18-1.17s-2.2.08-2.2,1.17v.49h4.39Z"/>
        <path class="cls-1" d="M228.72,43c3.07,0,3.92,1.88,3.92,3.95s-.85,3.95-3.92,3.95h-6.1c-3.07,0-3.92-1.88-3.92-3.95s.85-3.95,3.92-3.95h6.1ZM229.44,47.78c.55,0,1.05-.17,1.05-.83s-.51-.83-1.05-.83h-7.53c-.55,0-1.05.17-1.05.83s.51.83,1.05.83h7.53Z"/>
        <path class="cls-1" d="M232.37,42.21h-13.41v-3.14c0-2.98.3-4.75,3.12-4.75,1.68,0,2.77.7,3.05,2.39h.04c.04-1.51.6-2.39,2.52-2.39h2.81c.53,0,1.32-.09,1.86-.47v3.14c-.55.38-1.34.45-1.86.45h-2.84c-.94,0-1.41.56-1.41,1.13v.51h6.12v3.13ZM224.33,39.08c0-1.41-.47-1.64-1.73-1.64s-1.71.21-1.71,1.64h3.45Z"/>
        <path class="cls-1" d="M218.97,27.07l13.41-1.73v3.11l-3.29.36v1.69l3.29.51v2.64l-13.41-2.28v-4.29ZM227.05,29.02l-5.97.55v.04l5.97.55v-1.13Z"/>
        <path class="cls-1" d="M218.97,24.8v-4.33l9.75-2v-.04h-9.75v-2.45h13.41v4.01l-11.2,2.32v.04h11.2v2.45h-13.41Z"/>
        <path class="cls-1" d="M232.37,15.31h-13.41v-6.48h2.03v3.35h2.94v-3.24h2.03v3.24h4.37v-3.35h2.03v6.48Z"/>
        <path class="cls-1" d="M218.97,1.94l13.41-1.73v3.11l-3.29.36v1.69l3.29.51v2.64l-13.41-2.28V1.94ZM227.05,3.9l-5.97.55v.04l5.97.55v-1.13Z"/>
      </g>
    </g>
  </g>
</svg>