<?xml version="1.0" encoding="UTF-8"?>
<svg id="Livello_2" data-name="Livello 2" xmlns="http://www.w3.org/2000/svg" viewBox="0 0 95.71 36.58">
  <defs>
    <style>
      .cls-1 {
        fill: #fff;
        stroke-width: 0px;
      }
    </style>
  </defs>
  <g id="Livello_1-2" data-name="Livello 1">
    <g>
      <path class="cls-1" d="M85.26,22.88c-.79,0-1.12.34-1.12,1.16,0,.58.08,1.19.25,1.8.08-.03.15-.03.23-.05v-2.22h1.91s-.02-.03-.03-.04c-.44-.43-.86-.65-1.25-.65Z"/>
      <g>
        <path class="cls-1" d="M84.39,25.84c-.17-.62-.25-1.22-.25-1.8,0-.82.32-1.16,1.12-1.16.38,0,.8.22,1.25.65.01.01.02.03.03.04h.14v-.1s-.03-.05-.05-.06c-.48-.46-.94-.7-1.37-.7-.89,0-1.29.41-1.29,1.34,0,.68.11,1.37.32,2.05.12-.07.23-.1.34-.13v-.17c-.08.02-.15.02-.23.05Z"/>
        <g>
          <path class="cls-1" d="M21.24,22.37l1.51,4.36h2.61l-1.71-4.57c-.48-1.29-1.08-1.61-2.03-1.87,1.57-.32,3.09-1.73,3.14-3.58.04-2.46-1.33-4.06-4.72-4.06h-5.59v14.08h2.43v-6.09h2.45c.85.06,1.53.66,1.91,1.73ZM16.87,14.66h3.12c2.03,0,2.33,1.03,2.33,2.07,0,1.17-1.09,1.89-2.33,1.89h-3.12v-3.97Z"/>
          <path class="cls-1" d="M29.8,23.19v-10.54h-2.43v14.07h.19c.67-.97,1.38-2.07,2.13-3.36.03-.06.08-.12.11-.18Z"/>
          <path class="cls-1" d="M6.59,24.92c-3,0-4.16-2.66-4.16-5.27,0-3.14,1.49-5.29,4.28-5.29,1.73,0,3.02,1.63,3.62,2.84l1.85-1.19c-.76-1.81-2.91-3.65-5.56-3.66h-.03C2.68,12.37,0,15.15,0,19.65h0c0,4.07,2.39,7.26,6.63,7.26,2.74,0,4.93-1.95,5.59-3.74l-1.85-1.19c-.86,1.95-2.05,2.94-3.78,2.94Z"/>
          <path class="cls-1" d="M61.82,12.66h-3.26l-4.72,14.07h2.51l1.35-4.18h3.44c.07-.34.31-.75.78-1.31.58-.69,1.03-.99,1.46-.99.41,0,.74.14.98.41.24.26.36.61.36,1.04s-.25.94-.77,1.52c-.26.3-.52.52-.76.67l.93,2.84h1.98c.15-.12.3-.24.45-.35l-4.72-13.72ZM58.34,20.54l1.85-5.77,1.89,5.77h-3.74Z"/>
          <path class="cls-1" d="M88.95,26.73h1.55c.34-8.18,4.12-11.1,5.21-12.21v-1.87h-9.53v2.15h6.82c-1.08,1.11-3.24,3.63-4.29,8.04.31.57.48,1.24.48,2.03,0,.61-.09,1.23-.23,1.85Z"/>
          <path class="cls-1" d="M35.39,26.73v-6.07h2.58c3.58,0,5.05-1.77,5.05-4.08,0-2.09-1.2-3.46-3.11-3.82-.43.58-.87,1.2-1.32,1.83,1.44.04,2.01.94,2.01,1.98,0,.97-.46,2.09-2.19,2.09h-2.58c-.59.9-1.19,1.83-1.8,2.81-.35.55-.7,1.09-1.05,1.63v3.62h2.43Z"/>
          <path class="cls-1" d="M35.39,14.58h.07c.47-.67.95-1.31,1.42-1.93h-3.92v5.56c.76-1.13,1.56-2.3,2.43-3.53v-.1Z"/>
          <path class="cls-1" d="M84.62,21.16v-8.5h-3.32c-.5,1.43-5.03,8.87-5.03,8.87v2.05h5.62c.18-.59.5-1.11.99-1.54.51-.45,1.1-.73,1.73-.88ZM82.31,21.53h-3.8s2.35-3.98,3.8-6.7v6.7Z"/>
          <path class="cls-1" d="M72.38,24.7c0,.18,0,.44-1.18,2.03h1.17c.34-8.18,4.12-11.1,5.21-12.21v-1.87h-9.53v2.15h6.82c-1.16,1.19-3.55,3.99-4.49,8.99.32-.12.61-.18.88-.18.7,0,1.12.41,1.12,1.09Z"/>
          <path class="cls-1" d="M49.98,24.89v-.27c0-.74.08-1.26.23-1.6v-8.35h4.1v-2.01h-10.64v2.01h4.1v12.07h.25c1.24-1.03,1.75-1.57,1.95-1.85Z"/>
          <g>
            <path class="cls-1" d="M51.51,4.02c1.56-.47,2.68-.91,3.32-1.32.62-.39.94-.74.94-1.01,0-.32-.58-.38-1.07-.38-2.58,0-5.29,1.16-8.06,3.46l-.5.41.64-.1c1.8-.3,3.39-.65,4.74-1.05ZM54.69,1.48c.65,0,.89.12.89.21,0,.1-.08.38-.85.87-.63.4-1.73.83-3.27,1.3-1.34.4-2.93.75-4.72,1.05,2.74-2.27,5.41-3.42,7.95-3.42Z"/>
            <path class="cls-1" d="M45.7,5.37l.85-.71c2.79-2.31,5.53-3.49,8.14-3.49.79,0,1.19.17,1.19.51s-.32.69-.99,1.12c-.65.41-1.77.86-3.35,1.33h0c-1.35.41-2.95.76-4.75,1.06l-1.09.18ZM54.69,1.6c-2.4,0-4.92,1.04-7.5,3.09,1.6-.28,3.02-.6,4.23-.96,1.54-.46,2.63-.89,3.24-1.28.65-.42.77-.65.79-.73-.05-.03-.24-.11-.76-.11Z"/>
          </g>
          <g>
            <path class="cls-1" d="M39.71,12.72c.09-.13.18-.24.28-.37,1.71-2.29,3.28-4.16,4.7-5.59,13.76-2.02,13.75-4.44,13.75-5.24,0-.93-.91-1.41-2.69-1.41-3.95,0-7.97,1.74-11.96,5.18-3.69.43-7.6.65-11.61.65s-7.86-.23-11.35-.68c-4.75-.62-5.56-.69-5.76-.69-.64,0-1.01.34-1.01.92,0,1.02.91,1.83,2.75,2.48.2.1.63.17,1.12-.25.15-.13.23-.18.26-.2l9.77.48h.01c4.39,0,9.05-.3,13.87-.88-1.47,1.47-2.98,3.22-4.52,5.21-.08.1-.15.2-.23.3-.47.62-.95,1.26-1.42,1.93-.03.04-.05.07-.08.11-.07.1-.14.2-.21.3-.87,1.23-1.67,2.4-2.43,3.54-1.18,1.77-2.23,3.43-3.12,4.94-.01.02-.03.04-.04.07-.72,1.21-1.39,2.27-2.03,3.2-.04.06-.08.12-.12.18-3.23,4.67-5.34,5.91-5.45,5.97-.13.08.16-.75.16-.75v-.05c0-.59-.3-.92-.87-.92-.43,0-.91.45-1.54,1.44-.61.95-.92,1.81-.92,2.55,0,.48.19,1.29,1.45,1.29,2.29,0,5.12-2.55,8.66-7.81.38-.56.76-1.16,1.15-1.73.89-1.35,1.79-2.72,2.69-4.13.3-.47.6-.93.9-1.4.59-.94,1.17-1.84,1.74-2.72.95-1.46,1.88-2.83,2.76-4.09.46-.65.91-1.27,1.35-1.86ZM35.39,18.67c-.55.84-1.11,1.71-1.68,2.62-.25.39-.5.78-.75,1.17-.97,1.51-1.94,3-2.9,4.45-.36.54-.72,1.1-1.08,1.64-3.5,5.2-6.28,7.73-8.51,7.73-1.05,0-1.28-.61-1.28-1.12,0-.71.3-1.53.9-2.46.59-.93,1.03-1.36,1.4-1.36.46,0,.7.25.7.73h0c-.29.82-.21.89-.13.95l.12.07.1-.06c.27-.16,2.4-1.51,5.57-6.12.04-.06.08-.12.12-.18.57-.84,1.18-1.79,1.82-2.86.06-.11.13-.21.19-.32.85-1.45,1.85-3.03,2.97-4.71.75-1.13,1.56-2.31,2.43-3.54.12-.17.23-.33.35-.5.05-.07.1-.14.15-.21.48-.66.95-1.31,1.42-1.93.08-.1.16-.2.24-.3,1.5-1.94,2.98-3.66,4.42-5.09l.36-.36-.5.06c-4.8.58-9.45.88-13.83.88h-.02l-9.82-.49-.04.02c-.06.03-.16.11-.29.22-.48.41-.83.28-.95.22-1.77-.63-2.63-1.39-2.63-2.32,0-.62.45-.75.83-.75.3,0,2.18.22,5.74.69,3.5.45,7.33.68,11.38.68s7.92-.22,11.63-.65h.05s.04-.04.04-.04c3.96-3.41,7.94-5.14,11.84-5.14,1.67,0,2.51.41,2.51,1.23,0,2.04-4.58,3.74-13.6,5.06h-.06s-.04.05-.04.05c-1.44,1.45-3.05,3.37-4.79,5.71-.09.12-.17.23-.26.35-.44.6-.89,1.22-1.35,1.88-.89,1.26-1.81,2.62-2.76,4.09Z"/>
            <path class="cls-1" d="M20.47,36.58c-1.42,0-1.58-.99-1.58-1.42,0-.77.32-1.65.95-2.62.67-1.05,1.16-1.5,1.65-1.5.64,0,1,.38,1,1.05v.07c-.07.18-.12.36-.16.5.61-.42,2.53-1.92,5.22-5.81l.12-.18c.69-1.01,1.36-2.06,2.03-3.19l.04-.07c.85-1.45,1.9-3.11,3.12-4.94.81-1.21,1.6-2.37,2.43-3.54l.29-.41c.46-.65.94-1.3,1.42-1.93l.23-.3c1.46-1.9,2.9-3.57,4.28-4.97-4.7.56-9.24.84-13.53.84l-9.75-.48s-.1.07-.21.17c-.62.53-1.12.34-1.26.27-1.89-.67-2.82-1.52-2.82-2.59,0-.65.42-1.04,1.13-1.04.2,0,1.02.07,5.77.69,3.49.45,7.3.68,11.34.68s7.88-.22,11.56-.65c4-3.44,8.04-5.19,12.01-5.19,1.87,0,2.81.52,2.81,1.53,0,.41,0,1.28-1.78,2.27-2.13,1.19-6.18,2.22-12.04,3.09-1.38,1.39-2.95,3.26-4.66,5.54l-.12.15c-.05.07-.11.14-.16.21h0c-.44.59-.89,1.22-1.34,1.86-.86,1.21-1.78,2.59-2.76,4.08-.62.95-1.19,1.84-1.74,2.72-.18.28-.36.56-.54.84l-.36.56c-.88,1.38-1.79,2.77-2.69,4.13l-.35.53c-.27.41-.53.81-.8,1.21-3.56,5.29-6.42,7.86-8.76,7.86ZM21.49,31.47c-.31,0-.73.43-1.29,1.3-.58.9-.88,1.71-.88,2.39s.39,1,1.15,1c2.19,0,4.94-2.51,8.41-7.67.23-.35.47-.71.71-1.07l.37-.56c.96-1.45,1.93-2.94,2.9-4.45l.32-.5c.14-.22.29-.44.43-.67.54-.87,1.09-1.72,1.68-2.63h0c.96-1.47,1.88-2.84,2.76-4.09.44-.63.9-1.26,1.36-1.88l.26-.35c1.76-2.36,3.38-4.28,4.81-5.72l.07-.07.1-.02c6.16-.9,13.5-2.5,13.5-4.94,0-.73-.8-1.11-2.39-1.11-3.87,0-7.83,1.72-11.76,5.11l-.07.06h-.09c-3.71.44-7.63.66-11.64.66s-7.89-.23-11.39-.69c-3.55-.46-5.42-.69-5.72-.69-.71,0-.71.47-.71.62,0,.87.83,1.59,2.55,2.2.15.07.44.14.83-.2.14-.12.24-.2.32-.24l.07-.04h.03s9.82.49,9.82.49c4.39,0,9.03-.3,13.83-.88l.86-.1-.62.61c-1.41,1.4-2.89,3.11-4.41,5.08-.04.05-.08.1-.11.14-.04.05-.08.1-.12.16-.43.56-.89,1.19-1.42,1.92l-.07.1s-.05.07-.08.11c-.07.09-.13.18-.19.27l-.16.23c-.85,1.21-1.67,2.4-2.43,3.54-1.15,1.73-2.15,3.32-2.96,4.71l-.19.32c-.61,1.02-1.22,1.98-1.82,2.87l-.12.18c-3.21,4.67-5.38,6.02-5.61,6.16l-.17.1-.18-.11c-.16-.13-.21-.28.06-1.06h0c0-.41-.18-.61-.58-.61Z"/>
          </g>
          <g>
            <path class="cls-1" d="M61.56,23.55c.2.26.5.39.91.39.21,0,.43-.07.66-.22.22-.14.44-.34.69-.62.49-.55.73-1.02.73-1.41s-.1-.7-.31-.92c-.21-.23-.5-.35-.85-.35s-.79.3-1.32.93c-.43.51-.66.9-.74,1.2-.02.06-.03.13-.03.18,0,.31.09.58.27.82ZM61.5,22.55c.08-.27.3-.62.69-1.08.49-.58.88-.87,1.19-.87s.55.1.72.29c.18.19.26.46.26.81s-.22.77-.68,1.29c-.22.25-.42.43-.61.56-.21.14-.41.22-.6.22-.35,0-.61-.11-.77-.32-.16-.2-.24-.44-.24-.71,0-.05.02-.12.04-.18Z"/>
            <path class="cls-1" d="M62.47,24.07c-.45,0-.79-.15-1.01-.44h0c-.2-.26-.3-.56-.3-.9,0-.06.02-.13.03-.19.08-.35.32-.74.77-1.27.56-.67,1.01-.98,1.42-.98s.71.13.95.39c.23.25.34.59.34,1.01s-.25.91-.76,1.49c-.24.28-.48.49-.71.64-.25.16-.49.24-.72.24ZM63.38,20.72c-.26,0-.63.28-1.09.82-.37.44-.6.79-.67,1.04h0c-.02.06-.03.11-.03.15,0,.24.07.45.21.63.14.18.37.27.67.27.16,0,.33-.07.53-.2.19-.13.38-.31.59-.54.44-.5.65-.89.65-1.21s-.08-.55-.23-.72c-.15-.17-.36-.25-.63-.25Z"/>
          </g>
          <g>
            <path class="cls-1" d="M86.68,23.22c-.49-.45-.96-.69-1.42-.69-.99,0-1.47.49-1.47,1.51,0,.68.11,1.38.32,2.1l.06.21.19-.11c.09-.05.17-.07.26-.09.17-.05.34-.06.44,0,.09.05.14.15.14.28v.17l-.38.31-.32.27.06.12c.4.85.9,1.52,1.48,1.98l.16.13.1-.18c.49-.85.81-1.62,1-2.32.13-.46.21-.91.21-1.3,0-1.05-.26-1.83-.77-2.33-.02-.02-.05-.04-.07-.06ZM87.13,26.91c-.19.68-.51,1.42-.97,2.23-.57-.45-1.04-1.1-1.43-1.92.09-.07.24-.2.38-.32.15-.12.28-.23.28-.23v-.25c0-.4-.34-.57-.76-.47-.11.03-.22.06-.34.13-.2-.68-.32-1.37-.32-2.05,0-.92.4-1.34,1.29-1.34.43,0,.89.24,1.37.7.02.02.03.04.05.06.44.47.67,1.18.67,2.14,0,.39-.08.84-.22,1.3Z"/>
            <path class="cls-1" d="M86.24,29.6l-.27-.22c-.59-.47-1.11-1.15-1.52-2.02l-.1-.21.73-.61v-.11c0-.11-.04-.15-.08-.17-.04-.03-.14-.04-.35.01h-.05c-.07.03-.12.05-.18.08l-.33.18-.11-.36c-.22-.73-.33-1.44-.33-2.13,0-1.08.54-1.63,1.59-1.63.48,0,.99.24,1.5.72l.03.02s.03.02.05.04c.54.52.81,1.34.81,2.42,0,.37-.07.81-.22,1.34-.2.74-.55,1.53-1.02,2.35l-.17.3ZM84.87,27.26c.35.71.77,1.28,1.24,1.69.4-.72.7-1.42.89-2.08.14-.5.21-.92.21-1.27,0-.92-.21-1.61-.63-2.05-.01-.01-.02-.03-.03-.04-.47-.46-.9-.68-1.29-.68-.83,0-1.17.35-1.17,1.21,0,.6.09,1.23.27,1.87.08-.03.16-.05.23-.07.28-.06.53-.03.7.11.14.11.22.28.22.48v.31l-.63.52Z"/>
          </g>
          <g>
            <path class="cls-1" d="M83.42,28.84l-.13-.19-.15.17c-1.12,1.28-1.7,2.4-1.7,3.32,0,.54.35.8,1.07.8s1.6-.7,2.67-2.08l.12-.15-.17-.1c-.63-.39-1.21-.98-1.72-1.77ZM82.52,32.76c-.79,0-.89-.32-.89-.63,0-.87.55-1.95,1.65-3.2.53.81,1.12,1.42,1.77,1.82-1.29,1.65-2.09,2.01-2.53,2.01Z"/>
            <path class="cls-1" d="M82.52,33.06c-.79,0-1.19-.31-1.19-.93,0-.95.58-2.09,1.73-3.4l.26-.3.22.33c.5.77,1.07,1.35,1.68,1.73l.29.18-.21.26c-1.1,1.41-2.03,2.12-2.77,2.12ZM83.26,29.14c-1,1.17-1.51,2.18-1.51,2.99,0,.19,0,.5.77.5.33,0,1.07-.24,2.35-1.85-.58-.39-1.12-.94-1.6-1.64Z"/>
          </g>
          <g>
            <path class="cls-1" d="M42.16,25.61c0-1.05-.26-1.83-.77-2.33-.51-.5-1.01-.75-1.49-.75-.99,0-1.47.49-1.47,1.51,0,.96.21,1.92.6,2.87.04.08.06.17.1.26.41.91.93,1.63,1.55,2.12l.16.13.1-.18c.49-.85.81-1.62,1-2.32.13-.46.21-.91.21-1.3ZM40.79,29.15c-.6-.47-1.1-1.16-1.5-2.05-.03-.06-.05-.12-.07-.18-.4-.95-.61-1.91-.61-2.87s.4-1.34,1.29-1.34c.43,0,.89.24,1.37.7.48.46.72,1.21.72,2.2,0,.39-.08.84-.22,1.3-.19.68-.51,1.42-.97,2.23Z"/>
            <path class="cls-1" d="M40.88,29.6l-.27-.22c-.63-.5-1.17-1.23-1.59-2.16-.02-.05-.04-.1-.06-.16-.01-.03-.03-.07-.04-.1-.4-.98-.61-1.96-.61-2.92,0-1.08.54-1.63,1.59-1.63.51,0,1.04.26,1.58.79.54.52.81,1.34.81,2.42,0,.37-.07.81-.22,1.34-.2.74-.55,1.53-1.02,2.35l-.17.3ZM39.89,22.83c-.83,0-1.17.35-1.17,1.21,0,.93.2,1.88.6,2.82.01.03.02.06.03.09.01.03.02.06.04.09.37.81.82,1.46,1.35,1.91.4-.73.7-1.42.89-2.08.14-.5.21-.92.21-1.27,0-.96-.23-1.67-.68-2.11-.46-.44-.89-.67-1.28-.67Z"/>
          </g>
          <g>
            <path class="cls-1" d="M38.06,28.84l-.13-.19-.15.17c-1.12,1.28-1.69,2.4-1.69,3.32,0,.54.35.8,1.07.8s1.6-.7,2.67-2.08l.12-.15-.17-.1c-.63-.39-1.21-.98-1.72-1.77ZM37.15,32.76c-.79,0-.89-.32-.89-.63,0-.87.56-1.95,1.65-3.2.53.81,1.12,1.42,1.78,1.82-1.29,1.65-2.09,2.01-2.53,2.01Z"/>
            <path class="cls-1" d="M37.15,33.06c-.79,0-1.19-.31-1.19-.93,0-.95.58-2.09,1.73-3.4l.26-.3.22.33c.5.77,1.07,1.35,1.68,1.73l.29.18-.21.26c-1.1,1.41-2.03,2.12-2.77,2.12ZM37.9,29.14c-1.01,1.17-1.51,2.18-1.51,2.99,0,.19,0,.5.77.5.33,0,1.07-.24,2.35-1.85-.58-.39-1.12-.94-1.6-1.64Z"/>
          </g>
          <g>
            <path class="cls-1" d="M88.64,23.11c-.16-.35-.37-.67-.64-.93-.67-.63-1.49-.95-2.46-.95-.32,0-.62.05-.92.12-.59.14-1.13.41-1.61.83-.45.39-.75.87-.92,1.41-.11.34-.18.69-.18,1.09,0,.78.13,1.53.36,2.25.04.13.08.26.13.38-.37.37-.69.73-.99,1.07-1.36,1.04-2.81,2.07-4.33,3.06-1.52,1-2.05,1.15-2.22,1.15-.3,0-.3-.09-.3-.13.02-.12.28-.68,2.29-3.23.82-1.04,1.35-1.77,1.71-2.3.57-.85.69-1.18.69-1.37,0-.23-.13-.45-.38-.66-.24-.2-.5-.3-.76-.3-.42,0-1.33.28-4.31,2.33-.53.37-1.12.78-1.79,1.27-2.92,2.13-4.43,3.2-4.65,3.33-.22.13.82-1.17,2.31-3.05.49-.62.88-1.13,1.2-1.55.05-.06.09-.12.14-.18,1.21-1.63,1.22-1.88,1.22-2.03,0-.58-.34-.92-.94-.92-.27,0-.58.07-.92.21-.31.12-.64.3-1.01.54-.54.35-1.46,1.03-2.73,2.02-.07.06-.15.12-.23.18-.07.06-.15.12-.23.18-.34.27-.7.55-1.08.86l-.13.1s-3.15,2.39-4.89,3.55c-1.62,1.08-2.06,1.2-2.18,1.2-.09,0-.21,0-.21-.36,0-.46.34-1.45,1.98-3.51.63-.79,1.06-1.38,1.37-1.84.6-.89.72-1.25.72-1.46,0-.25-.1-.83-1.01-.83-.36,0-.95.21-2.04,1.63l-.82.66-.08.07c-1.67,1.35-3.48,2.7-5.38,4.01l-.53.35c-1.34.88-1.91,1.06-2.16,1.06-.14,0-.23-.02-.23-.27,0-.39.27-1.12,1.56-2.36,1.51-1.45,1.62-1.93,1.71-2.18.08-.23.06-.46-.02-.69-.18-.55-.66-1.11-.84-1.74-.27-.89,1.26-1.73,1.49-2.06.11-.15.22-.32.33-.52.12-.23.19-.44.19-.63,0-.22-.11-.43-.33-.63-.21-.19-.46-.29-.72-.29-.19,0-.51.09-1.32.77-.59.5-.96.88-1.12,1.18-.09.17-.16.4-.2.71-.04.26-.06.56-.06.92v.32c-.18.27-.67.8-1.85,1.79-.07.06-.14.12-.22.18-.2.17-.42.35-.66.54-1.98,1.49-3.71,2.25-5.15,2.25-.03,0-.07,0-.09,0,.56-.93.94-1.86,1.18-2.79.17-.68.28-1.36.28-2.03,0-1.16-.34-2.07-1.01-2.71-.67-.63-1.49-.95-2.45-.95s-1.81.32-2.53.95c-.73.64-1.11,1.48-1.11,2.49,0,.78.13,1.53.36,2.25.04.13.08.26.13.38-2.08,2.11-3.1,3.77-3.1,5.08,0,1.77,1.05,2.14,1.94,2.14.75,0,1.63-.32,2.61-.95.92-.59,1.79-1.37,2.57-2.3.12.01.26.02.43.02,1.66,0,3.59-.75,5.73-2.23l.31-.21s.09-.08.14-.11c.48-.35.96-.71,1.46-1.13l.34-.32c.16-.14.29-.25.43-.37.07-.06.15-.13.21-.18.04-.03.07-.06.11-.1.17-.15.32-.29.44-.4.09.07.2.18.34.34.11.13.18.24.22.34.02.05.05.11.05.14,0,.02-.08.24-.95.99-.7.59-1.41,1.3-2.13,2.1-.75.84-1.13,1.7-1.13,2.56,0,.94.48,1.45,1.36,1.45,1.07,0,2.66-.78,4.88-2.37,1.11-.8,3.02-2.25,3.37-2.5.35-.25-1.65,3.21-1.65,3.99,0,.49.2,1.32,1.54,1.32.36,0,1.14-.21,3.79-1.99,1.92-1.29,3.76-2.61,5.45-3.9.45-.35.83-.64,1.13-.87.55-.4.96-.69,1.29-.92.31-.22.54-.38.72-.5.15-.1.03.11-.24.5-.4.58-1.13,1.56-1.91,2.63-2.24,2.96-2.53,3.72-2.53,4.05,0,.5.32.79.88.79.46,0,.9-.13,1.29-.4.36-.24,1.11-.82,2.3-1.78,1.16-.94,2-1.62,2.52-2.03.47-.38,4.24-2.91,4.41-3.04.17-.13-.34.46-.7.89-.64.76-1.28,1.63-1.92,2.61-.66,1.01-.99,1.9-.99,2.66,0,.49.2,1.32,1.54,1.32,1,0,2.95-1.07,5.89-3.24-.12.36-.18.7-.18,1.01,0,1.77,1.05,2.14,1.94,2.14.75,0,1.63-.32,2.62-.95.92-.59,1.79-1.37,2.57-2.3.11.01.26.02.43.02,2.15,0,4.71-1.24,7.64-3.68,0,0,.49-.29.37-.31-.11-.01-1.04-.3-1.28-.38-.04-.01-.06-.02-.06-.02l-.02.02-.08.07c-2.24,1.81-4.18,2.73-5.76,2.73-.03,0-.07,0-.09,0,.56-.93.94-1.86,1.18-2.79.02-.06.03-.12.04-.18.14-.62.24-1.24.24-1.85,0-.68-.13-1.27-.37-1.77ZM88.59,26.73c-.01.06-.03.12-.04.18-.23.9-.61,1.81-1.15,2.7l-.11.26h.36c1.62,0,3.6-.93,5.87-2.76l.03-.03c.23.07.66.2.96.29-.04.03-.09.06-.13.08-2.89,2.42-5.42,3.64-7.52,3.64-.16,0-.3,0-.41-.02h-.09s-.06.06-.06.06c-.77.92-1.62,1.69-2.53,2.27-.95.61-1.8.92-2.52.92-1.17,0-1.76-.66-1.76-1.96,0-.29.06-.61.17-.96l.17-.52-.44.33c-2.89,2.12-4.84,3.2-5.79,3.2-1.13,0-1.36-.62-1.36-1.14,0-.72.32-1.58.96-2.57.64-.98,1.28-1.85,1.91-2.59l.19-.23q.66-.78.54-.91l-.1-.07-.04-.03-.03.03-.09.07c-.05.04-.55.38-1.12.76-1.26.85-2.98,2.02-3.3,2.28-.52.41-1.36,1.09-2.52,2.03-1.19.96-1.94,1.54-2.28,1.77-.37.24-.77.37-1.19.37-.32,0-.7-.11-.7-.61,0-.44.82-1.73,2.49-3.94l.68-.93c.68-.92,1.07-1.46,1.3-1.8.34-.5.31-.56.22-.65-.04-.04-.13-.11-.29,0-.21.15-.51.35-.92.65-.29.21-.64.46-1.09.79-.31.24-.68.52-1.13.87-1.67,1.28-3.5,2.59-5.44,3.89-1.96,1.32-3.17,1.96-3.69,1.96-1.13,0-1.36-.62-1.36-1.14,0-.4.67-1.76,1.12-2.66.61-1.23.66-1.35.51-1.47l-.14-.08-.11.08c-.14.1-.52.38-1,.75-.73.55-1.7,1.27-2.37,1.75-2.19,1.57-3.75,2.34-4.78,2.34-.78,0-1.19-.44-1.19-1.28s.36-1.63,1.08-2.44c.71-.8,1.42-1.5,2.11-2.09.62-.53.97-.9,1.01-1.12,0-.05-.01-.09-.03-.14-.05-.16-.18-.33-.29-.45-.13-.15-.25-.27-.35-.36l-.12-.1-.11.11c-.09.08-.21.19-.32.29-.11.1-.24.21-.38.33-.07.06-.14.12-.21.18-.1.08-.18.15-.28.24l-.33.31c-.44.37-.9.73-1.45,1.13l-.45.32c-2.12,1.46-4.01,2.2-5.63,2.2-.16,0-.3,0-.41-.02h-.09s-.06.06-.06.06c-.77.92-1.63,1.69-2.53,2.27-.95.61-1.8.92-2.52.92-1.17,0-1.76-.66-1.76-1.96s1-2.88,3.04-4.96l.08-.08-.04-.11c-.04-.1-.07-.21-.11-.32-.24-.72-.37-1.48-.37-2.25,0-.96.35-1.76,1.05-2.36.69-.6,1.5-.9,2.42-.9s1.7.31,2.33.91c.63.6.95,1.47.95,2.58,0,.67-.11,1.35-.28,2.03-.23.9-.61,1.81-1.15,2.7l-.11.26h.36c1.47,0,3.23-.76,5.26-2.29.3-.24.57-.47.83-.68.07-.06.15-.12.22-.18.82-.7,1.36-1.22,1.63-1.57.03-.04.07-.08.09-.12l.03-.04v-.38c0-.75.08-1.27.23-1.54.15-.27.51-.65,1.08-1.13.86-.73,1.12-.73,1.2-.73.23,0,.43.08.61.24.18.17.27.33.27.5s-.05.34-.17.55c-.11.2-.21.36-.32.5-.05.07-.2.19-.36.32-.55.45-1.39,1.12-1.16,1.89.1.35.29.67.47.98.15.25.28.48.36.7.08.22.1.43.03.63l-.02.04c-.08.23-.25.72-1.66,2.07-1.07,1.03-1.61,1.86-1.61,2.48,0,.4.23.45.4.45.39,0,1.15-.37,2.26-1.09l.53-.35c1.91-1.32,3.72-2.67,5.39-4.02l.25-.2.68-.56c.81-1.05,1.43-1.56,1.91-1.56.69,0,.83.36.83.66,0,.25-.25.73-.75,1.46-.33.47-.76,1.05-1.3,1.73-1.34,1.69-2.02,2.9-2.02,3.62,0,.23.04.54.38.54.29,0,1.06-.41,2.28-1.22,1.72-1.15,4.87-3.53,4.9-3.56l.13-.1c.45-.36.87-.69,1.26-1,.08-.06.16-.12.23-.18,0,0,0,0,0,0,1.29-1.01,2.22-1.7,2.76-2.05.32-.21.61-.36.88-.47.36-.16.68-.25.96-.25.5,0,.77.26.77.75,0,.1,0,.34-1.26,2.03-.04.06-.09.12-.14.18-.3.4-.67.88-1.12,1.45l-.45.57q-2.02,2.55-1.88,2.71l.12.1.13-.08c.25-.15,1.94-1.35,4.67-3.34.74-.54,1.4-1,2-1.42,2.11-1.44,3.43-2.16,4-2.16.22,0,.44.09.65.26.21.18.32.35.32.53,0,.21-.24.67-.72,1.37-.39.56-.92,1.28-1.64,2.2-1.49,1.9-2.27,3.02-2.33,3.35,0,.3.36.3.47.3.35,0,1.13-.4,2.32-1.18,1.48-.97,2.94-2,4.37-3.1.35-.4.66-.74.98-1.06l.08-.08-.04-.11c-.04-.1-.07-.21-.11-.32-.02-.06-.04-.12-.06-.18-.03-.09-.05-.18-.07-.26-.15-.59-.23-1.19-.23-1.81,0-.39.07-.75.19-1.09.17-.49.44-.92.85-1.28.45-.39.95-.64,1.5-.78.3-.07.6-.13.92-.13s.63.05.93.13c.07.02.14.03.21.06.44.15.85.38,1.2.72.31.3.55.66.71,1.08.16.44.25.94.25,1.5,0,.61-.1,1.23-.24,1.85Z"/>
            <path class="cls-1" d="M73.58,34.73c-1.5,0-1.66-1.01-1.66-1.44,0-.78.34-1.7,1.01-2.73.64-.98,1.29-1.87,1.93-2.62l.19-.22s.02-.02.03-.03c-.14.09-.3.2-.48.32-1.18.8-2.97,2.02-3.28,2.27-.52.41-1.36,1.09-2.52,2.03-1.21.98-1.94,1.55-2.31,1.79-.42.28-.87.42-1.36.42-.63,0-1-.34-1-.91,0-.37.3-1.15,2.55-4.12.23-.32.46-.63.68-.93.51-.7.95-1.3,1.23-1.7.02-.03.04-.06.06-.08-.11.08-.23.16-.36.26-.32.23-.73.52-1.28.92-.3.23-.66.51-1.1.85l-.03.02c-1.69,1.29-3.52,2.6-5.46,3.9-2.65,1.78-3.46,2.01-3.86,2.01-1.5,0-1.66-1.01-1.66-1.44,0-.47.64-1.76,1.15-2.8.16-.32.32-.66.43-.9-.18.14-.43.32-.71.53-.72.54-1.71,1.28-2.39,1.77-2.24,1.61-3.86,2.39-4.95,2.39-.94,0-1.49-.57-1.49-1.58,0-.89.39-1.78,1.16-2.64.72-.81,1.44-1.52,2.14-2.12.7-.6.87-.84.9-.91,0-.02-.02-.04-.02-.06-.05-.12-.12-.22-.21-.33-.09-.1-.17-.19-.24-.25-.11.1-.23.21-.36.33l-.43.37c-.1.09-.21.18-.33.28l-.33.31c-.45.38-.91.74-1.47,1.14l-.14.11-.32.22c-2.17,1.49-4.12,2.25-5.8,2.25-.14,0-.27,0-.38-.01-.78.92-1.64,1.69-2.56,2.28-1,.64-1.9.97-2.68.97s-2.06-.29-2.06-2.26c0-1.33,1.01-3.01,3.08-5.11-.03-.07-.05-.15-.07-.22l-.03-.09c-.24-.75-.36-1.52-.36-2.29,0-1.05.39-1.92,1.15-2.59.74-.65,1.62-.98,2.62-.98s1.85.33,2.54.99c.7.66,1.05,1.6,1.05,2.8,0,.64-.09,1.32-.28,2.06-.23.91-.59,1.8-1.08,2.64,1.38-.04,3.04-.79,4.95-2.23.24-.19.46-.37.66-.54l.22-.18c1.18-.99,1.64-1.49,1.81-1.73v-.29c0-.35.02-.66.06-.94.05-.33.12-.58.21-.75.17-.31.55-.7,1.15-1.21.83-.7,1.17-.8,1.4-.8.3,0,.57.11.81.32.25.22.37.47.37.73,0,.21-.07.44-.2.69-.12.21-.23.39-.34.54-.07.09-.22.22-.41.37-.49.4-1.23,1-1.06,1.57.09.32.27.62.44.92.16.28.31.54.4.82.09.29.1.54.02.77v.04c-.11.28-.29.79-1.75,2.18-1.32,1.27-1.52,1.96-1.52,2.27,0,.12.02.14.02.14.01.01.32.19,2.17-1.03l.53-.35c1.9-1.32,3.71-2.66,5.37-4l.9-.73c1.14-1.48,1.76-1.65,2.12-1.65,1.05,0,1.13.73,1.13.96,0,.2-.08.56-.74,1.53-.34.51-.79,1.11-1.38,1.85-1.7,2.14-1.95,3.07-1.95,3.43,0,.2.04.23.04.23,0,0,.03,0,.04,0,.06,0,.43-.06,2.11-1.17,1.71-1.14,4.85-3.52,4.88-3.55l.13-.1c.39-.31.74-.59,1.08-.86l.46-.36c1.28-1,2.2-1.68,2.74-2.03.37-.24.71-.42,1.03-.55,1.23-.5,2.03-.11,2.03.82,0,.17,0,.43-1.24,2.1l-.14.18c-.34.45-.74.97-1.2,1.56l-.47.59c-.62.78-1.19,1.5-1.53,1.95.66-.46,2-1.42,4.17-3,.63-.46,1.22-.88,1.8-1.28,3.02-2.09,3.93-2.36,4.38-2.36.3,0,.58.11.84.33.28.24.42.49.42.76,0,.19-.08.52-.71,1.44-.4.59-.96,1.35-1.72,2.31-1.89,2.41-2.2,3.01-2.25,3.15.02,0,.07.02.17.02.1,0,.56-.08,2.15-1.13,1.47-.96,2.93-1.99,4.32-3.06.31-.36.61-.69.92-1-.02-.07-.05-.14-.07-.21l-.03-.1c-.24-.75-.37-1.52-.37-2.29,0-.37.06-.73.19-1.12.19-.58.51-1.07.96-1.46.48-.42,1.04-.71,1.67-.85.35-.08.65-.12.95-.12,1,0,1.85.33,2.54.99.27.25.48.57.67.97h0c.25.54.38,1.16.38,1.83,0,.56-.08,1.18-.24,1.88l-.02.07s-.02.07-.02.11c-.23.91-.59,1.8-1.08,2.64,1.53-.05,3.4-.95,5.56-2.7l.14-.11.14.02c.85.26,1.21.37,1.26.37h.09s.04.11.04.11c.01.07.03.15-.44.43-2.93,2.45-5.53,3.7-7.7,3.7-.14,0-.27,0-.38-.01-.78.92-1.64,1.69-2.56,2.28-1,.64-1.91.97-2.68.97s-2.06-.29-2.06-2.26c0-.22.03-.45.09-.7-2.82,2.05-4.68,3.05-5.67,3.05ZM75.68,26.73l.22.15c.22.23.18.28-.51,1.1l-.19.23c-.63.74-1.27,1.61-1.9,2.58-.63.96-.94,1.8-.94,2.5s.42,1.02,1.24,1.02c.93,0,2.85-1.07,5.72-3.18l.76-.56-.3.9c-.11.33-.17.64-.17.92,0,1.23.54,1.84,1.64,1.84.7,0,1.52-.3,2.45-.9.9-.57,1.74-1.33,2.5-2.24l.1-.12.16.02c.1.01.23.02.39.02,2.06,0,4.54-1.2,7.37-3.56-.23-.07-.47-.14-.65-.2-2.29,1.84-4.28,2.78-5.93,2.78h-.55s.19-.44.19-.44c.52-.86.9-1.76,1.14-2.69,0-.03.02-.06.02-.1l.02-.08h0c.16-.68.24-1.27.24-1.82s-.08-1.03-.24-1.45c-.15-.41-.38-.76-.67-1.04-.33-.31-.71-.54-1.16-.69-.05-.02-.1-.03-.16-.04h-.04c-.64-.18-1.12-.18-1.78-.02-.55.14-1.03.39-1.45.75-.38.33-.65.74-.82,1.22-.12.36-.18.7-.18,1.04,0,.59.08,1.19.23,1.78.02.09.05.17.07.26.01.04.02.07.04.11l.06.18c.02.07.04.13.07.2l.07.18-.14.14c-.32.32-.63.66-.98,1.06-1.42,1.1-2.89,2.14-4.39,3.12-1.23.81-2.01,1.2-2.39,1.2-.49,0-.59-.23-.6-.42.04-.26.34-.86,2.35-3.43.71-.9,1.24-1.62,1.63-2.19.58-.85.7-1.17.7-1.3,0-.13-.09-.28-.27-.43-.18-.16-.37-.23-.57-.23-.54,0-1.86.72-3.93,2.14-.64.44-1.29.9-2,1.41-2.73,1.99-4.42,3.19-4.68,3.34l-.2.12-.19-.16q-.22-.25,1.86-2.88l.45-.57c.41-.52.79-1.01,1.12-1.44l.14-.18c.82-1.1,1.24-1.76,1.24-1.95,0-.42-.21-.62-.64-.62-.24,0-.55.08-.91.24-.28.12-.57.28-.86.47-.54.34-1.47,1.03-2.75,2.04l-.23.18c-.39.31-.8.64-1.26,1l-.13.1s-3.18,2.41-4.91,3.57c-1.87,1.25-2.23,1.25-2.35,1.25-.23,0-.51-.11-.51-.66,0-.74.69-1.99,2.04-3.7.53-.67.97-1.25,1.29-1.72.6-.88.73-1.24.73-1.39,0-.36-.23-.53-.71-.53-.42,0-1.03.51-1.81,1.51l-.95.78c-1.67,1.35-3.48,2.7-5.39,4.02l-.53.36c-1.14.75-1.9,1.11-2.32,1.11s-.53-.31-.53-.57c0-.66.55-1.52,1.65-2.57,1.38-1.32,1.55-1.79,1.62-2.02l.02-.04c.06-.16.05-.33-.03-.54-.08-.22-.22-.45-.35-.68-.18-.3-.37-.64-.48-1.01-.25-.85.62-1.56,1.2-2.02.13-.11.3-.24.34-.29.11-.14.21-.29.31-.49.1-.19.15-.35.15-.49,0-.13-.08-.27-.23-.41-.15-.14-.33-.21-.52-.21-.24,0-.74.38-1.12.7-.55.47-.91.83-1.05,1.09-.1.18-.22.58-.22,1.48v.42l-.05.08s-.05.07-.07.1l-.02.03c-.28.36-.83.9-1.65,1.59l-.22.18c-.25.21-.53.44-.83.68-2.05,1.54-3.84,2.32-5.33,2.32h-.55s.19-.44.19-.44c.52-.86.9-1.76,1.14-2.69.19-.72.28-1.38.28-2,0-1.07-.31-1.91-.92-2.49-.61-.58-1.36-.87-2.25-.87s-1.67.29-2.34.87-1,1.34-1,2.27c0,.75.12,1.49.36,2.21l.03.1c.02.07.04.14.07.21l.07.18-.14.14c-2.02,2.05-3.01,3.64-3.01,4.87s.54,1.84,1.64,1.84c.7,0,1.52-.3,2.45-.9.9-.57,1.74-1.33,2.5-2.24l.1-.12.16.02c.1.01.23.02.39.02,1.59,0,3.46-.73,5.55-2.18l.44-.32c.55-.4,1.01-.75,1.45-1.12l.82-.73c.14-.12.26-.23.38-.33l.03-.03c.1-.09.21-.19.29-.26l.2-.19.21.18c.11.09.23.22.37.37.11.12.25.31.31.5.02.07.03.13.03.18-.05.27-.37.64-1.06,1.22-.68.58-1.39,1.28-2.1,2.07-.7.78-1.05,1.58-1.05,2.36s.36,1.15,1.06,1.15c1,0,2.54-.76,4.71-2.31.65-.47,1.56-1.15,2.29-1.7l.07-.06c.48-.36.87-.65,1.01-.75l.18-.12.21.12c.25.21.18.34-.46,1.64-.42.84-1.1,2.24-1.1,2.61,0,.68.42,1.02,1.24,1.02.49,0,1.71-.65,3.62-1.94,1.94-1.3,3.77-2.61,5.44-3.89.45-.35.83-.63,1.13-.87.46-.33.8-.58,1.1-.79.42-.3.71-.5.92-.65.19-.13.36-.08.45.01.17.18.11.34-.2.81-.23.34-.62.88-1.3,1.81l-.68.93c-1.64,2.17-2.47,3.47-2.47,3.87,0,.12,0,.49.58.49.4,0,.78-.12,1.13-.35.35-.23,1.09-.81,2.27-1.77,1.16-.94,2-1.62,2.52-2.03.33-.26,2.05-1.43,3.3-2.29.34-.23,1.06-.72,1.11-.76l.2-.15Z"/>
          </g>
        </g>
      </g>
    </g>
  </g>
</svg>