<svg width="509" height="301" viewBox="0 0 509 301" fill="none" xmlns="http://www.w3.org/2000/svg"><script xmlns="" id="bw-fido2-page-script"/>
<g clip-path="url(#clip0_312_10921)">
<path d="M476.056 143.497C473.508 142.37 470.617 142.302 468.018 143.306C465.42 144.31 463.326 146.305 462.198 148.852C462.198 148.852 456.23 162.316 450.116 176.052C444.618 188.379 435.024 194.784 426.76 191.586C426.163 191.349 425.624 190.988 425.178 190.525C424.732 190.063 424.391 189.511 424.175 188.906C422.74 185.416 423.384 179.843 425.942 173.85C425.984 173.696 449.377 120.933 459.356 98.6047L477.215 98.5243C479.956 98.4421 482.556 97.2921 484.461 95.3196C486.365 93.3471 487.424 90.7084 487.41 87.9665C487.396 85.2246 486.312 82.5966 484.387 80.6433C482.463 78.6899 479.852 77.566 477.11 77.5111L468.816 77.556C473.068 68.0629 477.31 58.5673 481.378 49.4908C481.974 48.2279 482.313 46.8588 482.373 45.4635C482.434 44.0681 482.216 42.6746 481.731 41.3647C481.247 40.0548 480.506 38.8548 479.552 37.8348C478.598 36.8148 477.45 35.9953 476.175 35.4244C474.9 34.8535 473.525 34.5428 472.128 34.5102C470.732 34.4776 469.343 34.7239 468.044 35.2346C466.744 35.7453 465.559 36.5103 464.558 37.4846C463.557 38.459 462.761 39.6232 462.216 40.909C456.908 52.759 451.303 65.2954 445.748 77.6797L425.96 77.7713C424.554 77.7361 423.155 77.9834 421.847 78.4986C420.538 79.0138 419.346 79.7863 418.342 80.7705C417.337 81.7547 416.54 82.9305 415.998 84.2283C415.457 85.526 415.181 86.9194 415.187 88.3257C415.193 89.7321 415.482 91.1228 416.036 92.4156C416.589 93.7084 417.397 94.8769 418.41 95.852C419.424 96.827 420.623 97.5887 421.936 98.092C423.249 98.5953 424.65 98.8299 426.055 98.7819L436.351 98.7247C422.225 130.346 403.479 172.801 401.951 176.222C396.458 188.571 386.859 194.954 378.592 191.766C377.994 191.534 377.453 191.175 377.006 190.714C376.56 190.253 376.218 189.701 376.005 189.095C374.57 185.605 375.217 180.022 377.749 174.085C385.994 154.906 404.128 114.896 404.317 114.46C405.388 111.935 405.43 109.093 404.435 106.538C403.439 103.983 401.484 101.918 398.987 100.784C396.491 99.6507 393.65 99.5376 391.071 100.469C388.492 101.401 386.379 103.304 385.184 105.772C385.145 105.916 383.316 109.92 380.598 115.931C377.088 109.359 371.31 104.286 364.338 101.656C343.216 93.8638 316.311 111.087 303.097 140.893C302.151 143.031 295.912 157.043 289.806 170.75C283.868 184.026 258.784 202.917 231.939 191.635C224.915 188.717 216.592 180.099 215.513 166.932C225.755 167.346 250.559 167.274 263.314 157.419C270.205 152.102 279.504 143.36 280.32 128.723C281.033 115.745 272.379 104.927 258.755 101.794C234.766 96.2771 208.871 113.595 198.5 142.061C197.656 144.361 189.794 163.54 183.689 177.246C180.057 185.353 174.663 190.916 169.045 192.837C167.779 193.29 166.451 193.541 165.107 193.584C163.055 188.86 160.718 184.265 158.11 179.824C158.211 179.447 158.317 179.051 158.423 178.655C158.766 177.608 159.177 176.538 159.634 175.449C161.945 170.188 163.398 166.851 163.454 166.72C164.939 163.34 222.835 34.4734 231.085 15.699C232.209 13.15 232.274 10.2591 231.266 7.66207C230.259 5.06511 228.26 2.97487 225.711 1.85119C223.162 0.727504 220.271 0.662421 217.674 1.67025C215.078 2.67808 212.987 4.67627 211.864 7.22524C203.641 25.9347 143.096 160.862 141.341 164.864C131.767 159.157 121.113 155.502 110.053 154.13C107.21 153.789 104.35 153.614 101.487 153.605L98.1705 153.617L10.9254 154.052C8.19379 154.142 5.60527 155.295 3.70978 157.264C1.81428 159.233 0.761207 161.863 0.77429 164.596C0.787373 167.329 1.86558 169.949 3.77984 171.9C5.6941 173.851 8.29353 174.978 11.0258 175.043L98.0281 174.626L98.2213 174.678L101.484 174.672L101.702 174.669C112.753 174.966 123.498 178.362 132.713 184.469C131.129 188.061 111.172 233.215 107.538 241.175C99.6335 258.427 99.9032 275.851 108.25 287.819C109.11 289.055 110.059 290.226 111.09 291.323C113.827 294.195 117.129 296.468 120.789 297.999C124.448 299.53 128.385 300.286 132.352 300.22C133.14 300.213 133.958 300.174 134.769 300.122C160.146 298.143 168.726 266.547 171.555 256.144C175.575 241.143 174.603 226.493 171.679 213.876C173.526 213.474 175.336 212.92 177.092 212.221C186.45 208.516 194.911 200.814 200.654 189.971C205.744 199.392 213.857 206.824 223.687 211.071C231.592 214.412 240.093 216.113 248.675 216.069C269.552 215.969 288.49 205.607 300.07 192.643C303.812 200.892 309.908 206.812 317.74 209.687C321.205 210.962 324.874 211.594 328.566 211.552C338.309 211.512 348.515 207.114 357.679 199.496C360.534 204.931 365.266 209.142 370.995 211.347C374.809 212.827 378.865 213.584 382.955 213.578C391.987 213.524 400.88 209.737 408.294 202.934C411.11 206.617 414.892 209.447 419.22 211.11C423.036 212.606 427.1 213.365 431.199 213.347C446.433 213.288 461.314 202.533 469.333 184.545C475.454 170.78 481.425 157.307 481.425 157.307C482.532 154.762 482.59 151.883 481.584 149.296C480.579 146.709 478.592 144.625 476.056 143.497ZM133.18 279.084C129.751 279.366 127.307 278.286 125.5 275.68C122.503 271.409 121.042 262.062 126.66 249.829C131.243 239.835 138.459 223.527 145.304 207.989C146.469 208.985 147.72 209.874 149.043 210.648C152.782 222.002 155.183 236.301 151.311 250.596C146.321 268.95 140.226 278.56 133.18 279.084ZM253.935 122.295C255.577 122.735 259.418 123.971 259.216 127.582C258.993 131.663 257.413 135.433 250.394 140.841C245.185 144.828 230.629 146.218 219.405 146.068C227.255 128.211 243.044 119.822 253.93 122.314L253.935 122.295ZM359.858 161.92C350.935 182.046 334.132 193.332 325.06 189.98C322.464 189.005 320.41 186.819 318.994 183.447C315.426 174.975 316.663 161.972 322.207 149.471C330.064 131.741 344.073 120.876 353.493 120.843C354.695 120.82 355.892 121.015 357.025 121.417C359.621 122.392 361.653 124.582 363.072 127.944C366.635 136.436 365.465 149.457 359.853 161.939L359.858 161.92Z" fill="white"/>
<path d="M508.3 198.03C508.294 195.456 507.523 192.943 506.086 190.807C504.649 188.672 502.611 187.011 500.229 186.035C497.847 185.06 495.23 184.813 492.707 185.326C490.185 185.84 487.872 187.09 486.062 188.919C484.251 190.748 483.024 193.074 482.536 195.601C482.048 198.128 482.322 200.743 483.321 203.115C484.321 205.487 486.003 207.508 488.152 208.923C490.302 210.339 492.824 211.084 495.397 211.065C498.834 211.039 502.121 209.653 504.539 207.211C506.957 204.768 508.31 201.467 508.3 198.03Z" fill="white"/>
</g>
<defs>
<clipPath id="clip0_312_10921">
<rect width="509" height="301" fill="white"/>
</clipPath>
</defs>
</svg>