<?xml version="1.0" encoding="UTF-8"?>
<svg id="Livello_2" data-name="Livello 2" xmlns="http://www.w3.org/2000/svg" version="1.1" viewBox="0 0 1008 352.5">
  <defs>
    <style>
      .cls-1 {
        fill: #fff;
        stroke-width: 0px;
      }
    </style>
  </defs>
  <g id="Livello_1-2" data-name="Livello 1-2">
    <g>
      <path class="cls-1" d="M344,0c-11.9,0-23.9,0-35.8,0,0,12.5,0,24.9,0,37.4-12.5,0-24.9,0-37.4,0v35.9c12.5,0,24.9,0,37.4,0,0,12.6,0,25.2,0,37.8,11.9,0,23.9,0,35.8,0,0-12.6,0-25.2,0-37.9,12.5,0,25,0,37.5,0,0-12,0-23.9,0-35.9-12.5,0-25,0-37.5,0,0-12.5,0-24.9,0-37.4h0Z"/>
      <path class="cls-1" d="M441.8,63.7c8.9,0,17.7,0,26.6,0,0-5,0-10,0-15-8.9,0-17.7,0-26.6,0,0-10.8,0-21.6,0-32.4,10.2,0,20.5,0,30.7,0,0-5.2,0-10.3,0-15.5-15.7,0-31.3,0-47,0v109.2c5.4,0,10.8,0,16.3,0,0-15.4,0-30.8,0-46.2h0Z"/>
      <path class="cls-1" d="M564,44.7c7.8,21.7,15.9,43.3,23.7,65.1,5,.1,10,.1,15.1,0,0-36.4,0-72.7,0-109.1-5.3,0-10.5,0-15.8,0,0,21.7.2,43.5-.2,65.2-7.4-21.8-15.5-43.5-23.3-65.2-5.1,0-10.2,0-15.2,0,0,36.4,0,72.7,0,109.1,5.3,0,10.5,0,15.8,0,0-21.7,0-43.5,0-65.2h0Z"/>
      <path class="cls-1" d="M785,.8c-15.1,0-30.2,0-45.3,0,0,5.2,0,10.3,0,15.5,9.2,0,18.4,0,27.6,0-9,25.2-18.3,50.4-27.5,75.5-2.2,5.8-1.1,12.1-1.3,18.1,15.5,0,31,0,46.6,0,0-5,0-10.1,0-15.1-9.9,0-19.8,0-29.7,0,9.5-26.2,19.2-52.5,28.8-78.7,1.7-4.9.8-10.3.9-15.4h0Z"/>
      <path class="cls-1" d="M811.6.8c-5.4,0-10.8,0-16.3,0,0,36.4,0,72.7,0,109.1,5.4,0,10.8,0,16.3,0V.8h0Z"/>
      <path class="cls-1" d="M908.1,44.9c7.9,21.7,15.8,43.4,23.8,65,5,0,10,0,15,0,0-36.4,0-72.7,0-109.1-5.3,0-10.6,0-15.8,0,0,21.7,0,43.4,0,65.1-7.8-21.7-15.6-43.4-23.4-65.1-5.1,0-10.2,0-15.3,0,0,36.4,0,72.7,0,109.1,5.3,0,10.5,0,15.8,0,0-21.7,0-43.3,0-65h0Z"/>
      <path class="cls-1" d="M1008,94c-10.2,0-20.5,0-30.7,0v-31.5c9,0,18,0,27.1,0,0-5,0-10,0-15-9,0-18,0-27,0,0-10.4,0-20.7,0-31.1,10.2,0,20.4-.1,30.6.1.2-5.2.2-10.4.1-15.6-15.5,0-31,0-46.6,0,0,36.4,0,72.8,0,109.1,15.5,0,31.1,0,46.6,0,0-5.3,0-10.7,0-16h0Z"/>
      <path class="cls-1" d="M527.8,102.8c4.6-4.6,6.8-11.2,6.8-17.6,0-19.4,0-38.8,0-58.2.2-6.9-2.2-13.9-6.9-19-7.1-7.4-18.6-9.7-28.2-6.5-10.2,3.1-17.5,13.2-17.3,23.9-.1,19.5,0,38.9,0,58.4-.2,6.7,1.7,13.6,6.2,18.6,9.8,11.3,29.5,11.6,39.5.5h0ZM502.8,17.6c4.8-2.8,12.2-1.4,14.7,3.8,1.7,3.9,1.1,8.2,1.2,12.4-.2,17.3.2,34.5-.2,51.8-.2,6.2-6.9,10.9-12.8,9.1-5-.9-8-6-7.7-10.9-.2-17.8,0-35.5-.1-53.3,0-4.6.4-10.3,4.9-12.8h0Z"/>
      <path class="cls-1" d="M652.6,2.9c-11.4-3.7-23.6-1.6-35.3-2.1,0,36.4,0,72.7,0,109.1,11.8-.7,24.2,1.8,35.6-2.1,9.9-3.6,15-14.2,15.2-24.2.1-18.9,0-37.7,0-56.6s-5.6-20.7-15.5-24.1h0ZM652.2,80.4c-.2,4.4-.3,9.9-4.4,12.6-4.3,2.7-9.5,1.7-14.3,1.8,0-26.2,0-52.4,0-78.6,5,.2,10.8-1,15.1,2.3,3.7,3.4,3.5,8.9,3.6,13.5,0,16.1,0,32.2,0,48.4h0Z"/>
      <path class="cls-1" d="M853.2,110.8c12.9.5,24.8-10.4,25.3-23.4.3-17.9,0-35.7.1-53.6,0-6.6.5-13.5-2.6-19.6-5.3-11.7-20.2-17-32.1-12.9-10.5,2.9-17.9,13.2-17.7,24,0,18.9,0,37.7,0,56.6-2.2,15.4,11.4,30.3,27.1,28.8h0ZM842,28.7c-.2-4.3,1-9.3,5.2-11.4,6.5-3.7,15.7,1,15.4,8.8.3,18.7,0,37.3.1,56,.1,4.5-1.2,10-5.9,11.8-6.3,3.3-14.8-1.5-14.7-8.7-.3-18.8,0-37.7-.1-56.5h0Z"/>
      <path class="cls-1" d="M693,86.7c6.9,0,13.7,0,20.6,0,1.7,7.7,3.1,15.5,4.6,23.3,5.4,0,10.8,0,16.1,0-8.1-36.4-16.2-72.8-24.4-109.1-4.4,0-8.8,0-13.2,0-8.3,36.3-16.4,72.7-24.3,109.1,5.3,0,10.6,0,15.9,0,1.8-7.7,3.1-15.5,4.7-23.3h0ZM703.1,33.7c2.9,12.5,5.1,25.2,7.6,37.9-4.9,0-9.9,0-14.8,0,2.3-12.7,4.9-25.2,7.2-37.9h0Z"/>
      <path class="cls-1" d="M107.7,0C71.8,117.4,35.8,234.9,0,352.4c27.7.2,55.4,0,83.1,0,8.4-29.8,16.7-59.6,25-89.4,32.5,0,65.1,0,97.6,0,8.5,29.8,16.6,59.7,25.2,89.5,27.7,0,55.4,0,83,0C278,235,242.1,117.5,206.2,0,173.4,0,140.5,0,107.7,0h0ZM119.7,202.2c12.4-47.1,25-94.2,37.2-141.4,12.4,47.2,24.8,94.3,37.3,141.4,0,0-74.4,0-74.4,0Z"/>
      <path class="cls-1" d="M712.4,244.7c-8-36.4-16.1-72.8-24.4-109.1-4.2,0-8.5,0-12.7.1,8,36.4,16.1,72.7,24.2,109,4.3,0,8.5,0,12.8,0h0Z"/>
      <path class="cls-1" d="M871.2,213c-.3,3.6-.2,7.2-1.2,10.6-2.2,6.4-12.2,7.9-16,2.2-1.9-3.2-2-7-2.1-10.6,0-16.7,0-33.5,0-50.2.2-4.4.1-9.5,3.6-12.7,3.7-2.7,9.4-2.3,12.5,1.3,3.3,3.7,2.8,9,3.2,13.6,5.2,0,10.5,0,15.7,0,.2-7.7,0-16.1-4.9-22.6-7.6-11.1-24.2-12.9-35.2-6-7.2,4.5-11,13.2-10.8,21.6,0,20,0,40,0,60,0,6.7,1.9,13.8,6.9,18.5,10.5,9.5,29.3,9.1,38.2-2.4,5.5-6.5,6.2-15.2,5.8-23.4-5.2,0-10.5,0-15.7,0h0Z"/>
      <path class="cls-1" d="M956.4,150.7c5.9,0,11.9,0,17.9,0,0,31.4,0,62.7,0,94.1,5.3,0,10.5,0,15.8,0,0-31.3,0-62.7,0-94.1,6,0,11.9,0,17.9,0v-15c-17.2,0-34.4,0-51.6,0,0,5,0,10,0,15.1h0Z"/>
      <path class="cls-1" d="M581.1,245.5c0-31.3,0-62.6,0-94,5.9,0,11.9,0,17.9,0,0-5,0-10,0-15-17.3,0-34.7,0-52,0,0,5,0,10,0,15.1h18.3c0,31.3,0,62.7,0,94h15.8Z"/>
      <path class="cls-1" d="M653.1,229.3c-10.3,0-20.5,0-30.8,0,0-10.4,0-20.7,0-31.1,9,0,18,0,27.1,0v-15c-9,0-18,0-27.1,0v-31.5c10.3,0,20.5,0,30.8,0,0-5,0-10,0-15h-46.7v109h46.7v-16.3h0Z"/>
      <path class="cls-1" d="M926.7,135.6c-9.2-.1-18.5,0-27.7,0,0,36.4,0,72.7,0,109.1,5.4,0,10.8,0,16.3,0,0-15.5,0-31,0-46.6,2.9,0,5.7,0,8.6,0,5,15.5,9.7,31.1,14.7,46.6,5.6,0,11.2,0,16.9,0-5.4-16.6-11-33.1-16.6-49.6,6.6-4,11.4-10.6,12.5-18.3,1.3-10.2,1.3-21.5-4.1-30.6-4.1-7.1-12.5-10.4-20.4-10.6h0ZM933.3,180.4c-4.3,5.3-12.1,3-18.1,3.5,0-11.1,0-22.1,0-33.2,6.6.1,16.5-1.5,19.4,6.4,2,7.5,2.4,16.3-1.3,23.3h0Z"/>
      <path class="cls-1" d="M543.8,178.4c1.3-8.8,1.2-18.2-1.8-26.7-3-8.3-11.1-14.3-19.9-14.9-10.2-.6-20.4,0-30.6-.3,0,36.3,0,72.7,0,109,5.4,0,10.8,0,16.3,0,0-15.5,0-31.1,0-46.6,2.9,0,5.7,0,8.6,0,5,15.5,9.7,31.1,14.7,46.6,5.6,0,11.3,0,16.9,0-5.4-16.5-11.2-32.9-16.6-49.5,6.3-3.9,11.2-10.2,12.3-17.6h0ZM527.3,179c-3.1,7.7-12.8,5.5-19.3,5.7,0-11.1,0-22.1,0-33.2,6.1.3,14.3-1.5,18.5,4.4,3.3,7.1,2.9,15.7.9,23.1h0Z"/>
      <path class="cls-1" d="M446.2,222.2c6.9,0,13.8,0,20.7,0,1.6,7.7,3.1,15.5,4.6,23.3,5.4,0,10.8,0,16.2,0-8.2-36.3-16.3-72.7-24.4-109-4.5,0-9,0-13.5,0-8.2,36.3-16.2,72.7-24.4,109,5.4,0,10.8,0,16.1,0,1.6-7.8,3.1-15.5,4.6-23.3h0ZM456.4,168.4c2.6,12.9,5,25.8,7.6,38.8-5,0-10,0-15,0,2.4-12.9,5.2-25.8,7.3-38.7h0Z"/>
      <path class="cls-1" d="M601,321.1c-5.3-14.5-10.4-29.1-15.7-43.6h-10.5c0,24.4,0,48.9,0,73.3h10.8c0-14.4,0-28.7,0-43.1,5.3,14.4,10.5,28.7,15.7,43.1,3.5,0,7,0,10.5,0,0-24.5,0-48.9,0-73.3-3.6,0-7.2,0-10.8,0,0,14.5,0,29.1,0,43.6h0Z"/>
      <path class="cls-1" d="M753.3,350.8c10.5,0,21.1,0,31.6,0v-10.9h-20.8c0-6.9,0-13.9,0-20.8,6.1,0,12.2,0,18.3,0v-10.5c-6.1,0-12.2,0-18.3,0,0-7,0-14.1,0-21.1,6.9,0,13.8,0,20.8,0,0-3.4,0-6.7,0-10.1-10.5,0-21.1,0-31.6,0,0,24.4,0,48.9,0,73.3h0Z"/>
      <path class="cls-1" d="M920.1,320.3c-5.4-14.2-10.2-28.7-15.6-42.9-3.5,0-7,0-10.5,0,0,24.4,0,48.8,0,73.3,3.6,0,7.2,0,10.8,0,0-14.5,0-29.1,0-43.6,5.3,14.5,10.5,29.1,15.9,43.6h10.4c0-24.4,0-48.9,0-73.3-3.6,0-7.3,0-10.9,0,0,14.3,0,28.5,0,42.8h0Z"/>
      <path class="cls-1" d="M935.5,287.6h12.1c0,21.1,0,42.1,0,63.2h10.8c0-21.1,0-42.2,0-63.2,4,0,8,0,12.1,0,0-3.4,0-6.7,0-10-11.7,0-23.3,0-35,0,0,3.4,0,6.7,0,10h0Z"/>
      <path class="cls-1" d="M986.4,319.2c6,0,12.1,0,18.2.1,0-3.5.1-7.1.2-10.6-6.1,0-12.2,0-18.3,0v-21.1c6.9,0,13.9,0,20.8,0,0-3.4,0-6.7,0-10-10.6,0-21.1,0-31.7,0,0,24.4,0,48.9,0,73.3,10.5,0,21.1,0,31.7,0,0-3.6,0-7.2,0-10.9h-20.8c0-6.9,0-13.9,0-20.8h0Z"/>
      <path class="cls-1" d="M425.5,287.6c4.1,0,8.3,0,12.4,0,0,21.1,0,42.1,0,63.2,3.6,0,7.2,0,10.9,0,0-21.1,0-42.2,0-63.3h12.1v-10c-11.8,0-23.6,0-35.4,0,0,3.4,0,6.7,0,10.1h0Z"/>
      <path class="cls-1" d="M553.6,277.5c0,24.5,0,48.9,0,73.3,3.8,0,7.5,0,11.3,0,0-24.4,0-48.9,0-73.3-3.8,0-7.5,0-11.3,0h0Z"/>
      <path class="cls-1" d="M732.1,277.5c0,24.4,0,48.9,0,73.3,3.6,0,7.3,0,10.9,0,0-24.4,0-48.8,0-73.3h-10.9,0Z"/>
      <path class="cls-1" d="M815.9,315.8c-4.3-12.8-8.9-25.5-13.2-38.3h-10.7c0,24.4,0,48.9,0,73.3,3.6,0,7.3,0,10.9,0,0-14.5,0-29.1,0-43.6,3.7,10.2,6.5,20.7,10.3,30.9,1.8,0,3.7-.1,5.6-.2,3.3-10,6.4-20,9.8-29.9,0,14.3,0,28.5,0,42.8,3.7,0,7.5,0,11.3,0v-73.3c-3.6,0-7.2,0-10.8,0-4.4,12.7-8.9,25.5-13.2,38.3h0Z"/>
      <path class="cls-1" d="M499.2,291.5c-1-10.8-13.4-17.4-23.3-13.9-7.5,2-12.5,9.6-12.2,17.3.2,14.3-.6,28.7.5,43,2,12.9,19.4,18,28.9,9.9,5.6-4,6.7-11.4,6.5-17.8-.3-12.9.5-25.7-.4-38.5h0ZM487.6,337.2c-2.7,5.6-12.1,4-12.6-2.3-.8-11.6,0-23.3-.4-34.9.2-3.9-.5-8.9,3.4-11.3,3.8-2.5,9.8-.1,10.4,4.6.9,9.4.1,18.9.4,28.4-.2,5.2.8,10.6-1.1,15.6h0Z"/>
      <path class="cls-1" d="M540.5,283c-8-8.8-21-4.5-31.4-5.5,0,24.4,0,48.8,0,73.3,3.6,0,7.3,0,10.9,0,0-10.4,0-20.8,0-31.1,1.4,0,4.2,0,5.6,0,3.5,10.4,6.4,20.9,10,31.2,3.8,0,7.7,0,11.5,0-3.6-11-7.4-22-11.1-33,11.2-7.4,11.3-24.5,4.5-34.8h0ZM533,306c-2.1,5.1-8.6,3.9-13,4.1,0-7.5,0-15.1,0-22.6,4.6.3,11.4-.6,13.1,5,.9,4.4,1,9.2-.2,13.6h0Z"/>
      <path class="cls-1" d="M632.5,277.7c-6.6,2.1-11.5,8.6-11.5,15.5,0,14.4-.2,28.7,0,43.1.6,11,13.2,18.1,23.2,14.4,6.9-1.9,12.1-8.6,12.1-15.8,0-14.4.2-28.7-.1-43.1-.8-11.1-13.8-18.1-23.8-14.1h0ZM645.5,333.4c.5,4.6-4.2,8.5-8.5,7-3.3-.5-5.1-3.9-5-7-.2-11.7,0-23.5,0-35.2,0-3.2-.2-6.9,2.5-9.1,3.8-3.2,10.9-.9,11.1,4.4.4,13.3.2,26.6.1,39.9h0Z"/>
      <path class="cls-1" d="M717.2,281.1c-7.9-6.3-18.7-2.6-28-3.5,0,24.4,0,48.8,0,73.3,3.6,0,7.2,0,10.8,0,0-9.4,0-18.8,0-28.2,5.4-.1,11.3.2,16-3,5.1-3.5,7.3-9.9,7.2-15.9.2-7.8.7-17.3-6.2-22.6h0ZM711.3,309.8c-3,3-7.5,2-11.2,2.3,0-8.2,0-16.4,0-24.7,4.3.3,11.1-.6,12.4,4.9,1.1,5.7,1.7,12.2-1.2,17.4h0Z"/>
      <path class="cls-1" d="M860.6,277.8c-6.5,2.2-11.3,8.6-11.2,15.5,0,14.4-.2,28.8,0,43.2.7,11.4,14.2,18.2,24.2,13.9,6.3-2.3,11.2-8.5,11-15.3,0-14,0-28,0-42,.2-11.8-13.7-19.7-24.2-15.3h0ZM873.8,334.8c-.3,7.7-13,7.6-13.4,0-.4-12.1,0-24.3-.2-36.5,0-3.4-.2-8,3.3-9.7,4.4-2.9,11,1,10.3,6.3,0,13.3.2,26.6-.1,39.9h0Z"/>
    </g>
  </g>
</svg>