<svg width="663" height="105" viewBox="0 0 663 105" fill="none" xmlns="http://www.w3.org/2000/svg">
<path d="M402.121 45.8843L438.876 30.3079V0.335938H336.465V102.269H353.964L365.372 63.4399V102.269H438.876V80.2929L402.121 45.8843Z" fill="#786ED6"/>
<path d="M134.232 60.7051L215.346 49.2147V0.335938H111.977V104.183H154.139L134.232 60.7051Z" fill="#786ED6"/>
<path d="M250.437 64.0221L327.829 75.2974V27.4605L297.017 29.1006L327.829 18.5882V0.335938H223.981V104.183H327.829V98.3857L250.437 64.0221Z" fill="#786ED6"/>
<path d="M505.642 24.9145L551.36 21.276V0.335938H447.513V15.5627L482.789 21.9886L447.513 72.1485V102.269H551.36V72.2144L505.642 24.9145Z" fill="#786ED6"/>
<path fill-rule="evenodd" clip-rule="evenodd" d="M0.333496 90.2677V0.335938H103.341V103.326H76.6232L36.4316 63.4968L0.333496 90.2677ZM58.6971 48.2092C68.4422 48.2092 76.3421 40.3093 76.3421 30.5642C76.3421 20.8192 68.4422 12.9193 58.6971 12.9193C48.9521 12.9193 41.0522 20.8192 41.0522 30.5642C41.0522 40.3093 48.9521 48.2092 58.6971 48.2092Z" fill="#786ED6"/>
<path fill-rule="evenodd" clip-rule="evenodd" d="M559.996 103.326V0.335938H663V103.326H559.996ZM637.458 96.4105C646.249 96.4105 653.375 89.284 653.375 80.493C653.375 71.702 646.249 64.5755 637.458 64.5755C628.667 64.5755 621.54 71.702 621.54 80.493C621.54 89.284 628.667 96.4105 637.458 96.4105Z" fill="#786ED6"/>
</svg>
