<svg width="350" height="350" viewBox="0 0 350 350" fill="none" xmlns="http://www.w3.org/2000/svg">
<path d="M43.3088 104.256L170 122.714V44.4036L119.561 47.0883L170 29.8793V0H0V170H170V160.51L43.3088 104.256Z" fill="#FF8761"/>
<path d="M288.987 75.9639L350 49.9861V0H180V170H209.049L227.985 105.243V170H350V133.349L288.987 75.9639Z" fill="#FF8761"/>
<path d="M95.1584 220.991L170 214.923V180H0V205.395L57.7486 216.111L0 299.766V350H170V299.876L95.1584 220.991Z" fill="#FF8761"/>
<path fill-rule="evenodd" clip-rule="evenodd" d="M180 350V180H350V350H180ZM307.845 338.598C322.354 338.598 334.115 326.835 334.115 312.324C334.115 297.813 322.354 286.05 307.845 286.05C293.336 286.05 281.574 297.813 281.574 312.324C281.574 326.835 293.336 338.598 307.845 338.598Z" fill="#FF8761"/>
</svg>
